<?xml version="1.0" standalone="no"?>
<!DOCTYPE svg PUBLIC "-//W3C//DTD SVG 20010904//EN"
 "http://www.w3.org/TR/2001/REC-SVG-20010904/DTD/svg10.dtd">
<svg version="1.0" xmlns="http://www.w3.org/2000/svg"
 width="640.000000pt" height="640.000000pt" viewBox="0 0 640.000000 640.000000"
 preserveAspectRatio="xMidYMid meet">

<g transform="translate(0.000000,640.000000) scale(0.100000,-0.100000)"
fill="#000000" stroke="none">
<path d="M553 6393 c9 -2 25 -2 35 0 9 3 1 5 -18 5 -19 0 -27 -2 -17 -5z"/>
<path d="M1113 6393 c9 -2 25 -2 35 0 9 3 1 5 -18 5 -19 0 -27 -2 -17 -5z"/>
<path d="M1713 6393 c42 -2 112 -2 155 0 42 1 7 3 -78 3 -85 0 -120 -2 -77 -3z"/>
<path d="M2393 6393 c9 -2 25 -2 35 0 9 3 1 5 -18 5 -19 0 -27 -2 -17 -5z"/>
<path d="M2498 6393 c7 -3 16 -2 19 1 4 3 -2 6 -13 5 -11 0 -14 -3 -6 -6z"/>
<path d="M3188 6393 c6 -2 18 -2 25 0 6 3 1 5 -13 5 -14 0 -19 -2 -12 -5z"/>
<path d="M3973 6393 c9 -2 23 -2 30 0 6 3 -1 5 -18 5 -16 0 -22 -2 -12 -5z"/>
<path d="M4523 6393 c37 -2 96 -2 130 0 34 2 4 3 -68 3 -71 0 -99 -1 -62 -3z"/>
<path d="M5178 6393 c7 -3 16 -2 19 1 4 3 -2 6 -13 5 -11 0 -14 -3 -6 -6z"/>
<path d="M5253 6393 c9 -2 23 -2 30 0 6 3 -1 5 -18 5 -16 0 -22 -2 -12 -5z"/>
<path d="M5813 6393 c9 -2 23 -2 30 0 6 3 -1 5 -18 5 -16 0 -22 -2 -12 -5z"/>
<path d="M2475 5150 c3 -5 0 -10 -7 -10 -10 0 -9 -3 2 -9 8 -6 18 -7 22 -5 4
3 8 0 8 -6 0 -6 4 -9 10 -5 5 3 1 14 -10 25 -21 21 -35 27 -25 10z"/>
<path d="M3898 5140 c-10 -11 -13 -22 -8 -25 6 -4 10 -1 10 5 0 6 4 9 8 6 4
-2 14 -1 22 5 11 6 12 9 2 9 -7 0 -10 5 -7 10 10 17 -9 9 -27 -10z"/>
<path d="M3890 5085 c-7 -8 -16 -13 -20 -10 -5 3 -11 1 -15 -5 -4 -6 -10 -8
-14 -6 -4 3 -8 -1 -8 -8 0 -10 6 -10 28 1 25 12 58 43 46 43 -2 0 -10 -7 -17
-15z"/>
<path d="M2503 5083 c4 -6 20 -18 36 -26 23 -11 28 -11 28 0 0 7 -3 11 -5 8
-3 -3 -11 0 -19 6 -7 6 -13 8 -13 4 0 -4 -8 -1 -17 6 -10 8 -14 9 -10 2z"/>
<path d="M2547 5029 c7 -7 15 -10 18 -7 3 3 -2 9 -12 12 -14 6 -15 5 -6 -5z"/>
<path d="M2584 5025 c3 -21 16 -31 16 -12 0 9 -4 18 -9 21 -5 4 -8 -1 -7 -9z"/>
<path d="M3792 5010 c-13 -16 -18 -30 -12 -30 6 0 8 -5 4 -12 -4 -7 -3 -8 5
-4 6 4 8 12 5 18 -4 6 -1 14 7 18 10 7 23 40 15 40 -1 0 -12 -13 -24 -30z"/>
<path d="M3840 5030 c-9 -6 -10 -10 -3 -10 6 0 15 5 18 10 8 12 4 12 -15 0z"/>
<path d="M2606 4985 c-3 -8 0 -17 6 -21 6 -4 8 -3 4 4 -3 5 -1 12 6 14 8 3 9
6 1 11 -6 4 -13 0 -17 -8z"/>
<path d="M2660 4920 c0 -5 5 -10 11 -10 5 0 7 5 4 10 -3 6 -8 10 -11 10 -2 0
-4 -4 -4 -10z"/>
<path d="M3725 4920 c-3 -5 -1 -10 4 -10 6 0 11 5 11 10 0 6 -2 10 -4 10 -3 0
-8 -4 -11 -10z"/>
<path d="M2685 4883 c9 -8 13 -19 10 -24 -4 -5 -1 -9 5 -9 7 0 9 7 6 16 -3 8
-2 12 4 9 6 -3 10 -12 10 -20 0 -19 17 -28 26 -14 4 7 3 9 -3 6 -9 -6 -26 24
-25 43 0 3 -10 6 -23 6 -21 2 -23 0 -10 -13z"/>
<path d="M3681 4892 c3 -18 -14 -51 -24 -45 -6 3 -7 1 -3 -6 9 -14 26 -5 26
14 0 8 4 17 10 20 6 3 7 -1 4 -9 -3 -9 -2 -16 3 -16 15 0 13 38 -3 44 -7 3
-13 2 -13 -2z"/>
<path d="M2757 4809 c7 -7 15 -10 18 -7 3 3 -2 9 -12 12 -14 6 -15 5 -6 -5z"/>
<path d="M3594 4782 c4 -3 14 -7 22 -8 9 -1 13 0 10 4 -4 3 -14 7 -22 8 -9 1
-13 0 -10 -4z"/>
<path d="M2810 4742 c0 -5 3 -12 8 -16 4 -4 7 -13 7 -18 0 -6 6 -12 13 -14 7
-1 8 0 2 3 -5 2 -8 9 -4 14 3 5 -2 16 -10 25 -9 8 -16 11 -16 6z"/>
<path d="M3573 4735 c-6 -7 -9 -16 -5 -19 3 -4 0 -11 -8 -16 -11 -7 -11 -10
-2 -10 7 0 17 12 23 26 11 31 9 37 -8 19z"/>
<path d="M2860 4670 c-9 -6 -10 -10 -3 -10 6 0 15 5 18 10 8 12 4 12 -15 0z"/>
<path d="M3527 4669 c7 -7 15 -10 18 -7 3 3 -2 9 -12 12 -14 6 -15 5 -6 -5z"/>
<path d="M2885 4659 c-4 -6 -5 -12 -2 -15 2 -3 7 2 10 11 7 17 1 20 -8 4z"/>
<path d="M3506 4657 c3 -10 3 -17 -2 -15 -5 2 -9 0 -9 -4 0 -4 -9 -13 -19 -21
-16 -11 -16 -15 -5 -22 8 -5 11 -5 7 -1 -4 5 5 19 20 31 22 20 25 26 14 37
-11 11 -12 10 -6 -5z"/>
<path d="M2904 4633 c2 -9 8 -19 14 -21 7 -2 10 -8 6 -13 -3 -5 0 -9 5 -9 16
0 13 20 -4 26 -8 4 -13 10 -10 14 3 5 1 11 -4 14 -5 4 -8 -2 -7 -11z"/>
<path d="M2955 4559 c-3 -3 4 -9 15 -12 12 -3 20 0 20 7 0 13 -28 18 -35 5z"/>
<path d="M3005 4520 c-3 -5 -5 -10 -3 -11 33 -8 38 -7 27 7 -14 17 -16 17 -24
4z"/>
<path d="M3383 4514 c0 -9 4 -11 12 -4 7 5 14 9 16 7 2 -1 3 0 1 2 -7 11 -29
7 -29 -5z"/>
<path d="M3015 4481 c-3 -5 -2 -12 3 -15 5 -3 9 1 9 9 0 17 -3 19 -12 6z"/>
<path d="M3373 4475 c0 -8 4 -12 9 -9 5 3 6 10 3 15 -9 13 -12 11 -12 -6z"/>
<path d="M3058 4446 c-3 -14 -2 -26 1 -27 3 0 14 -2 23 -4 10 -2 21 2 25 8 3
7 2 9 -2 4 -5 -4 -16 4 -25 19 l-17 25 -5 -25z"/>
<path d="M3321 4447 c-8 -15 -19 -24 -24 -20 -6 3 -7 1 -3 -5 5 -9 44 -9 51 0
1 2 -1 14 -4 27 l-6 23 -14 -25z"/>
<path d="M3108 4388 c5 -5 16 -8 23 -6 8 3 3 7 -10 11 -17 4 -21 3 -13 -5z"/>
<path d="M3275 4390 c-16 -7 -17 -9 -3 -9 9 -1 20 4 23 9 7 11 7 11 -20 0z"/>
<path d="M3123 4355 c0 -8 4 -12 9 -9 4 3 8 9 8 15 0 5 -4 9 -8 9 -5 0 -9 -7
-9 -15z"/>
<path d="M3250 4355 c-11 -13 -10 -14 5 -9 14 6 16 4 10 -7 -5 -8 -4 -11 0 -6
12 10 15 37 5 37 -4 0 -13 -7 -20 -15z"/>
<path d="M3150 4324 c0 -6 6 -17 14 -23 11 -9 15 -8 20 4 4 10 2 14 -5 9 -6
-4 -15 0 -20 7 -5 8 -9 9 -9 3z"/>
<path d="M3240 4321 c0 -8 -6 -11 -16 -7 -8 3 -12 2 -9 -3 3 -6 -3 -14 -12
-20 -10 -6 -13 -11 -7 -11 18 0 60 37 52 46 -5 4 -8 2 -8 -5z"/>
<path d="M3190 4256 c7 -7 13 -7 20 0 6 6 3 10 -10 10 -13 0 -16 -4 -10 -10z"/>
<path d="M3116 4211 c-4 -5 -2 -12 3 -15 5 -4 12 -2 15 3 4 5 2 12 -3 15 -5 4
-12 2 -15 -3z"/>
<path d="M3266 4211 c-4 -5 -2 -12 3 -15 5 -4 12 -2 15 3 4 5 2 12 -3 15 -5 4
-12 2 -15 -3z"/>
<path d="M2991 4016 c-9 -11 -9 -16 1 -22 7 -4 10 -4 6 1 -4 4 -3 14 3 22 6 7
9 13 6 13 -2 0 -10 -6 -16 -14z"/>
<path d="M3399 4017 c6 -8 7 -18 3 -22 -4 -5 -1 -5 6 -1 10 6 10 11 1 22 -6 8
-14 14 -16 14 -3 0 0 -6 6 -13z"/>
<path d="M2951 3967 c-6 -8 -7 -18 -3 -22 4 -5 -1 -5 -11 -2 -15 6 -16 4 -7
-13 6 -11 14 -20 17 -20 3 0 3 3 0 7 -4 3 -2 12 4 20 6 7 8 13 4 13 -4 0 -2 7
5 15 7 8 10 15 7 15 -2 0 -10 -6 -16 -13z"/>
<path d="M3439 3967 c6 -8 7 -18 3 -22 -4 -5 -1 -5 6 -1 10 6 10 11 1 22 -6 8
-14 14 -16 14 -3 0 0 -6 6 -13z"/>
<path d="M2884 3870 c2 -16 20 -14 24 2 3 10 2 10 -6 -1 -7 -9 -11 -10 -15 -2
-4 7 -5 8 -3 1z"/>
<path d="M3491 3873 c-1 -17 16 -25 25 -12 4 7 3 9 -4 5 -5 -3 -13 0 -15 6 -4
9 -6 10 -6 1z"/>
<path d="M2855 3849 c-4 -6 -5 -12 -2 -15 2 -3 7 2 10 11 7 17 1 20 -8 4z"/>
<path d="M2827 3823 c-3 -5 -2 -16 2 -26 7 -18 7 -18 27 0 11 10 14 14 7 10
-15 -10 -36 0 -28 14 4 5 4 9 1 9 -3 0 -7 -3 -9 -7z"/>
<path d="M3520 3815 c0 -2 6 -8 13 -14 10 -8 14 -7 14 2 0 8 -6 14 -14 14 -7
0 -13 -1 -13 -2z"/>
<path d="M3563 3805 c-3 -9 -3 -18 -1 -21 3 -3 8 4 11 16 6 23 -1 27 -10 5z"/>
<path d="M2810 3781 c0 -6 4 -13 10 -16 6 -3 7 1 4 9 -7 18 -14 21 -14 7z"/>
<path d="M2730 3685 c0 -2 6 -8 13 -14 10 -8 14 -7 14 2 0 8 -6 14 -14 14 -7
0 -13 -1 -13 -2z"/>
<path d="M3643 3673 c0 -9 4 -10 14 -2 7 6 13 12 13 14 0 1 -6 2 -13 2 -8 0
-14 -6 -14 -14z"/>
<path d="M3687 3639 c7 -7 15 -10 18 -7 3 3 -2 9 -12 12 -14 6 -15 5 -6 -5z"/>
<path d="M2650 3561 c0 -6 4 -13 10 -16 6 -3 7 1 4 9 -7 18 -14 21 -14 7z"/>
<path d="M3736 3553 c-6 -14 -5 -15 5 -6 7 7 10 15 7 18 -3 3 -9 -2 -12 -12z"/>
<path d="M2619 3543 c-13 -16 -12 -17 4 -4 16 13 21 21 13 21 -2 0 -10 -8 -17
-17z"/>
<path d="M3760 3556 c0 -2 8 -10 18 -17 15 -13 16 -12 3 4 -13 16 -21 21 -21
13z"/>
<path d="M2600 3517 c0 -2 6 -10 14 -16 11 -9 16 -9 22 1 4 7 4 10 -1 6 -4 -4
-14 -3 -22 3 -7 6 -13 9 -13 6z"/>
<path d="M3776 3511 c-14 -5 -16 -10 -8 -15 7 -4 12 -4 12 1 0 4 5 1 10 -7 7
-12 9 -10 7 8 0 12 -1 22 -2 21 0 0 -9 -4 -19 -8z"/>
<path d="M2580 3459 c0 -5 -4 -8 -9 -5 -5 3 -8 -2 -7 -12 0 -9 -5 -16 -11 -14
-7 1 -13 -2 -13 -8 0 -13 17 -13 25 0 4 6 9 8 13 6 4 -2 8 7 8 20 1 13 0 24
-2 24 -2 0 -4 -5 -4 -11z"/>
<path d="M3814 3429 c-3 -5 -2 -9 3 -8 23 4 35 -2 29 -17 -3 -8 -2 -12 4 -9 6
3 10 12 10 19 0 16 -38 28 -46 15z"/>
<path d="M2495 3369 c-4 -6 -4 -13 -1 -16 3 -4 6 -1 6 6 0 7 5 9 10 6 6 -3 10
-1 10 4 0 14 -17 14 -25 0z"/>
<path d="M2493 3323 c0 -9 4 -10 14 -2 7 6 13 12 13 14 0 1 -6 2 -13 2 -8 0
-14 -6 -14 -14z"/>
<path d="M3886 3328 c3 -5 10 -6 15 -3 13 9 11 12 -6 12 -8 0 -12 -4 -9 -9z"/>
<path d="M2355 1650 c-14 -23 52 -117 117 -163 l37 -27 691 0 691 0 37 27 c65
46 131 140 117 163 -8 14 -1682 14 -1690 0z"/>
<path d="M2500 1175 l0 -25 700 0 700 0 0 25 0 25 -700 0 -700 0 0 -25z"/>
<path d="M2502 863 l3 -28 695 0 695 0 3 28 3 27 -701 0 -701 0 3 -27z"/>
<path d="M2505 543 c-7 -30 38 -131 83 -184 38 -46 115 -79 184 -79 56 0 58
-1 104 -50 79 -84 99 -90 324 -90 225 0 245 6 324 90 46 49 48 50 104 50 69 0
146 33 184 79 45 53 90 154 83 184 l-7 27 -688 0 -688 0 -7 -27z"/>
<path d="M848 3 c6 -2 18 -2 25 0 6 3 1 5 -13 5 -14 0 -19 -2 -12 -5z"/>
<path d="M1833 3 c15 -2 37 -2 50 0 12 2 0 4 -28 4 -27 0 -38 -2 -22 -4z"/>
<path d="M2898 3 c7 -3 16 -2 19 1 4 3 -2 6 -13 5 -11 0 -14 -3 -6 -6z"/>
<path d="M3188 3 c6 -2 18 -2 25 0 6 3 1 5 -13 5 -14 0 -19 -2 -12 -5z"/>
<path d="M3488 3 c7 -3 16 -2 19 1 4 3 -2 6 -13 5 -11 0 -14 -3 -6 -6z"/>
<path d="M4523 3 c15 -2 37 -2 50 0 12 2 0 4 -28 4 -27 0 -38 -2 -22 -4z"/>
<path d="M5468 3 c6 -2 18 -2 25 0 6 3 1 5 -13 5 -14 0 -19 -2 -12 -5z"/>
<path d="M5528 3 c6 -2 18 -2 25 0 6 3 1 5 -13 5 -14 0 -19 -2 -12 -5z"/>
</g>
</svg>
